<svg xmlns="http://www.w3.org/2000/svg" xmlns:xlink="http://www.w3.org/1999/xlink" viewBox="0 0 551.99 95.84"><defs><style>.cls-1{fill:none;}.cls-2{clip-path:url(#clip-path);}.cls-3{fill:#057a96;}.cls-4{fill:#0d2638;}.cls-5{fill:#00c7c7;}.cls-6{fill:#f5bf00;}.cls-7{fill:#0f2639;}</style><clipPath id="clip-path" transform="translate(0 0)"><rect class="cls-1" width="382.66" height="95.84"/></clipPath></defs><title>giotto-tdaAsset 11</title><g id="Layer_2" data-name="Layer 2"><g id="Layer_1-2" data-name="Layer 1"><g class="cls-2"><path class="cls-3" d="M95.83,47c0,.31,0,.62,0,.93s0,.62,0,.92A47.73,47.73,0,0,1,88.76,73c-.16.26-.32.52-.49.78l-.74,1.12c-.32.46-.64.92-1,1.37s-.78,1-1.18,1.54l-.39.49c-.18.2-.35.41-.53.62s-.48.57-.73.85-.5.56-.76.83l-.77.81a48.29,48.29,0,0,1-8.73,7.06l-1,.59a47.5,47.5,0,0,1-11.59,5l-.88.24c-.6.15-1.2.3-1.81.43L57.09,95a48.67,48.67,0,0,1-8.25.87A35.94,35.94,0,0,0,48.54,24H47.3A24,24,0,0,0,24,47.3,35.94,35.94,0,0,1,95.83,47" transform="translate(0 0)"/><path class="cls-4" d="M95.83,47A35.94,35.94,0,0,0,24,47.3v1.24a23.87,23.87,0,0,0,7.42,16.71c.26.26.54.51.82.75s.56.48.86.71a23.4,23.4,0,0,0,4.75,2.94,24,24,0,0,0,4.84,1.65,23.43,23.43,0,0,0,4.38.56A35.94,35.94,0,0,1,47,0h1.85a47.73,47.73,0,0,1,33,14c.53.53,1,1.08,1.55,1.63s.75.84,1.11,1.26l.36.43c.24.29.48.58.71.88l.69.89c.45.6.89,1.21,1.31,1.83l.63.93.6,1c.19.32.39.64.58,1A47.72,47.72,0,0,1,95.83,47" transform="translate(0 0)"/><path class="cls-5" d="M81.81,47.92a35.94,35.94,0,0,1-33,47.91H47A48.55,48.55,0,0,1,38.75,95c-.38-.08-.77-.15-1.14-.24-.57-.12-1.14-.26-1.7-.4L34.8,94q-2.22-.64-4.35-1.47c-.54-.21-1.06-.43-1.59-.65l-.52-.23-1-.48-1-.5-1-.52-.5-.27-1-.56c-.65-.38-1.29-.78-1.93-1.19a47.5,47.5,0,0,1-4.53-3.33q-1.73-1.42-3.32-3a47.78,47.78,0,0,1-14-33,35.94,35.94,0,0,0,71.85,0,2.44,2.44,0,0,0,0-.27c0-.21,0-.42,0-.62s0-.41,0-.62a23.77,23.77,0,0,0-2.22-9.49,23.13,23.13,0,0,0-2.94-4.75c-.23-.3-.47-.58-.71-.86s-.49-.56-.75-.82A23.87,23.87,0,0,0,48.54,24a36,36,0,0,1,33.27,24" transform="translate(0 0)"/><path class="cls-6" d="M71.86,48.81a35.6,35.6,0,0,1-5.24,17.82A35.94,35.94,0,0,1,0,48.84c0-.3,0-.61,0-.92S0,47.3,0,47A47.91,47.91,0,0,1,47,0a35.94,35.94,0,0,0,0,71.85h1.51a23.85,23.85,0,0,0,4.65-.57A24.23,24.23,0,0,0,58,69.65a23.67,23.67,0,0,0,4.75-2.94l.86-.71c.28-.24.55-.49.82-.75s.53-.52.79-.79.51-.54.75-.82.48-.57.71-.86A23.67,23.67,0,0,0,69.65,58a23.93,23.93,0,0,0,2.21-9.22" transform="translate(0 0)"/><path class="cls-4" d="M183.59,69.35c-7.69,9.51-17.79,14.52-28.9,14.53-18.5,0-35.93-15.67-35.95-36C118.73,29,134.42,12,154.62,12c11.71,0,21.12,5.09,26.53,12.18l-9.4,7.62c-4.21-4.6-10.11-8.4-17.11-8.39-11.91,0-23.9,11-23.89,24.53,0,13.71,10.23,24.6,23.93,24.59a24.24,24.24,0,0,0,17.5-7.72V53.35l-17.51,0v-11l28.92,0Z" transform="translate(0 0)"/><path class="cls-4" d="M196.11,82.64l0-44h10.8l0,44Zm12.54-63.53a7.2,7.2,0,1,1-14.4,0,7.2,7.2,0,0,1,14.4,0" transform="translate(0 0)"/><path class="cls-4" d="M228.5,60.6a13,13,0,1,0,26,0,13,13,0,0,0-26,0m36.61,0c0,12.7-10.88,23.22-23.58,23.23s-23.62-10.48-23.64-23.19,10.89-23.21,23.59-23.23,23.62,10.48,23.63,23.19" transform="translate(0 0)"/></g><polygon class="cls-4" points="299.21 38.53 299.21 48.13 288.51 48.14 288.54 82.56 277.74 82.57 277.71 48.15 269.2 48.16 288.48 20.63 288.5 38.54 299.21 38.53"/><polygon class="cls-4" points="330.52 38.5 330.53 48.1 319.82 48.11 319.85 82.53 309.05 82.54 309.02 48.12 300.51 48.13 319.8 20.6 319.81 38.51 330.52 38.5"/><g class="cls-2"><path class="cls-4" d="M346,60.49a13,13,0,1,0,26,0,13,13,0,0,0-26,0m36.62,0c0,12.7-10.89,23.22-23.59,23.23S335.45,73.21,335.44,60.5,346.32,37.28,359,37.27s23.62,10.48,23.63,23.19" transform="translate(0 0)"/></g><path class="cls-7" d="M389.8,62.29V51.9h27.44V62.29Z" transform="translate(0 0)"/><path class="cls-7" d="M453.3,39.46v9.41H442.82V82.58H432.23V48.87H423.9l18.92-27V39.46Z" transform="translate(0 0)"/><path class="cls-7" d="M490.05,82.58V76.7c-1.37,3.24-6.47,7.06-12.93,7.06-13,0-19.21-11.57-19.21-22.74s6.17-22.74,19.21-22.74c4.6,0,10.68,2.75,12.93,7.06V13h10.59V82.58ZM468.29,61c0,6.76,4,12.74,11.28,12.74,5.48,0,10.48-5.88,10.48-12.74S485,48.28,479.57,48.28C472.41,48.28,468.29,54.26,468.29,61Z" transform="translate(0 0)"/><path class="cls-7" d="M515.92,44c6.18-4.9,10.78-5.69,16.66-5.69,10.1,0,18.43,5.39,18.43,15.29V71.8a55.33,55.33,0,0,0,1,10.78H541a55.7,55.7,0,0,1-.59-5.88c-1.07,3.43-5.88,7.06-12,7.06-9.31,0-15.68-6-15.68-14s5.39-12.93,15.09-13.91a123.41,123.41,0,0,0,12.64-1.67v-.59c0-3.92-3.43-6-7.84-6s-7.64.88-10.48,3.24Zm13.62,19.79c-5,.69-6.56,3.63-6.56,6,0,2.65,2.25,4.71,6.17,4.71,6.57,0,11.27-3,11.27-8.33V62.2Z" transform="translate(0 0)"/><line class="cls-1" x1="308.69" y1="82.46" x2="448.69" y2="82.46"/></g></g></svg>