<?xml version="1.0" encoding="UTF-8" standalone="no"?>
<svg
   xmlns:dc="http://purl.org/dc/elements/1.1/"
   xmlns:cc="http://creativecommons.org/ns#"
   xmlns:rdf="http://www.w3.org/1999/02/22-rdf-syntax-ns#"
   xmlns:svg="http://www.w3.org/2000/svg"
   xmlns="http://www.w3.org/2000/svg"
   xmlns:sodipodi="http://sodipodi.sourceforge.net/DTD/sodipodi-0.dtd"
   xmlns:inkscape="http://www.inkscape.org/namespaces/inkscape"
   viewBox="0 0 95.829996 95.870006"
   version="1.1"
   id="svg47"
   sodipodi:docname="tda_favicon.svg"
   inkscape:version="0.92.3 (2405546, 2018-03-11)"
   width="95.829994"
   height="95.870003">
  <metadata
     id="metadata51">
    <rdf:RDF>
      <cc:Work
         rdf:about="">
        <dc:format>image/svg+xml</dc:format>
        <dc:type
           rdf:resource="http://purl.org/dc/dcmitype/StillImage" />
        <dc:title>giotto-tdaAsset 11</dc:title>
      </cc:Work>
    </rdf:RDF>
  </metadata>
  <sodipodi:namedview
     pagecolor="#ffffff"
     bordercolor="#666666"
     borderopacity="1"
     objecttolerance="10"
     gridtolerance="10"
     guidetolerance="10"
     inkscape:pageopacity="0"
     inkscape:pageshadow="2"
     inkscape:window-width="1867"
     inkscape:window-height="1025"
     id="namedview49"
     showgrid="false"
     inkscape:zoom="0.67754852"
     inkscape:cx="47.915"
     inkscape:cy="47.935"
     inkscape:window-x="53"
     inkscape:window-y="27"
     inkscape:window-maximized="1"
     inkscape:current-layer="layer1" />
  <defs
     id="defs7">
    <style
       id="style2">.cls-1{fill:none;}.cls-2{clip-path:url(#clip-path);}.cls-3{fill:#057a96;}.cls-4{fill:#0d2638;}.cls-5{fill:#00c7c7;}.cls-6{fill:#f5bf00;}.cls-7{fill:#0f2639;}</style>
    <clipPath
       id="clip-path"
       transform="translate(0 0)">
      <rect
         class="cls-1"
         width="382.66"
         height="95.839996"
         id="rect4"
         x="0"
         y="0"
         style="fill:none" />
    </clipPath>
  </defs>
  <title
     id="title9">giotto-tdaAsset 11</title>
  <g
     id="Layer_2"
     data-name="Layer 2"
     transform="translate(-32.522044,0.01500183)">
    <g
       id="Layer_1-2"
       data-name="Layer 1" />
  </g>
  <g
     inkscape:groupmode="layer"
     id="layer1"
     inkscape:label="Layer 1"
     style="display:inline"
     transform="translate(-32.522044,0.01500183)">
    <path
       class="cls-6"
       d="m 104.38204,48.794998 a 35.6,35.6 0 0 1 -5.239996,17.82 35.94,35.94 0 0 1 -66.62,-17.79 c 0,-0.3 0,-0.61 0,-0.92 0,-0.31 0,-0.62 0,-0.92 a 47.91,47.91 0 0 1 47,-46.99999983 35.94,35.94 0 0 0 0,71.84999983 h 1.51 a 23.85,23.85 0 0 0 4.65,-0.57 24.23,24.23 0 0 0 4.84,-1.63 23.67,23.67 0 0 0 4.75,-2.94 l 0.86,-0.71 c 0.28,-0.24 0.55,-0.49 0.82,-0.75 0.27,-0.26 0.53,-0.52 0.79,-0.79 0.26,-0.27 0.51,-0.54 0.75,-0.82 0.24,-0.28 0.48,-0.57 0.71,-0.86 a 23.67,23.67 0 0 0 2.969996,-4.78 23.93,23.93 0 0 0 2.21,-9.22"
       id="path17-7"
       inkscape:connector-curvature="0"
       style="fill:#f5bf00" />
    <path
       class="cls-5"
       d="m 114.33204,47.904998 a 35.94,35.94 0 0 1 -32.999996,47.91 h -1.81 a 48.55,48.55 0 0 1 -8.25,-0.83 c -0.38,-0.08 -0.77,-0.15 -1.14,-0.24 -0.57,-0.12 -1.14,-0.26 -1.7,-0.4 l -1.11,-0.36 q -2.22,-0.64 -4.35,-1.47 c -0.54,-0.21 -1.06,-0.43 -1.59,-0.65 l -0.52,-0.23 -1,-0.48 -1,-0.5 -1,-0.52 -0.5,-0.27 -1,-0.56 c -0.65,-0.38 -1.29,-0.78 -1.93,-1.19 a 47.5,47.5 0 0 1 -4.53,-3.33 q -1.73,-1.42 -3.32,-3 a 47.78,47.78 0 0 1 -14,-33 35.94,35.94 0 0 0 71.849996,0 2.44,2.44 0 0 0 0,-0.27 c 0,-0.21 0,-0.42 0,-0.62 0,-0.2 0,-0.41 0,-0.62 a 23.77,23.77 0 0 0 -2.22,-9.49 23.13,23.13 0 0 0 -2.939996,-4.75 c -0.23,-0.3 -0.47,-0.58 -0.71,-0.86 -0.24,-0.28 -0.49,-0.56 -0.75,-0.82 a 23.87,23.87 0 0 0 -16.75,-7.37 36,36 0 0 1 33.269996,24"
       id="path15-7"
       inkscape:connector-curvature="0"
       style="fill:#00c7c7" />
    <path
       class="cls-4"
       d="m 128.35204,46.984998 a 35.94,35.94 0 0 0 -71.829996,0.3 v 1.24 a 23.87,23.87 0 0 0 7.42,16.71 c 0.26,0.26 0.54,0.51 0.82,0.75 0.28,0.24 0.56,0.48 0.86,0.71 a 23.4,23.4 0 0 0 4.75,2.94 24,24 0 0 0 4.84,1.65 23.43,23.43 0 0 0 4.38,0.56 35.94,35.94 0 0 1 -0.07,-71.85999983 h 1.85 A 47.73,47.73 0 0 1 114.37204,13.984998 c 0.53,0.53 1,1.08 1.55,1.63 0.55,0.55 0.75,0.84 1.11,1.26 l 0.36,0.43 c 0.24,0.29 0.48,0.58 0.71,0.88 l 0.69,0.89 c 0.45,0.6 0.89,1.21 1.31,1.83 l 0.63,0.93 0.6,1 c 0.19,0.32 0.39,0.64 0.58,1 a 47.72,47.72 0 0 1 6.44,23.15"
       id="path13-6"
       inkscape:connector-curvature="0"
       style="fill:#0d2638" />
    <path
       class="cls-3"
       d="m 128.35204,46.984998 c 0,0.31 0,0.62 0,0.93 0,0.31 0,0.62 0,0.92 a 47.73,47.73 0 0 1 -7.07,24.15 c -0.16,0.26 -0.32,0.52 -0.49,0.78 l -0.74,1.12 c -0.32,0.46 -0.64,0.92 -1,1.37 -0.36,0.45 -0.78,1 -1.18,1.54 l -0.39,0.49 c -0.18,0.2 -0.35,0.41 -0.53,0.62 -0.18,0.21 -0.48,0.57 -0.73,0.85 -0.25,0.28 -0.5,0.56 -0.76,0.83 l -0.77,0.81 a 48.29,48.29 0 0 1 -8.73,7.06 l -1,0.59 a 47.5,47.5 0 0 1 -11.589996,5 l -0.88,0.24 c -0.6,0.15 -1.2,0.3 -1.81,0.43 l -1.07,0.27 a 48.67,48.67 0 0 1 -8.25,0.87 35.94,35.94 0 0 0 -0.3,-71.87 h -1.24 a 24,24 0 0 0 -23.3,23.3 35.94,35.94 0 0 1 71.829996,-0.3"
       id="path11-4"
       inkscape:connector-curvature="0"
       style="fill:#057a96" />
  </g>
</svg>
