<?xml version="1.0" encoding="UTF-8" standalone="no"?>
<!-- Created by igraph (http://igraph.org/) for use in Inkscape (http://www.inkscape.org/) -->

<svg
   xmlns:dc="http://purl.org/dc/elements/1.1/"
   xmlns:cc="http://creativecommons.org/ns#"
   xmlns:rdf="http://www.w3.org/1999/02/22-rdf-syntax-ns#"
   xmlns:svg="http://www.w3.org/2000/svg"
   xmlns="http://www.w3.org/2000/svg"
   xmlns:sodipodi="http://sodipodi.sourceforge.net/DTD/sodipodi-0.dtd"
   xmlns:inkscape="http://www.inkscape.org/namespaces/inkscape"
   width="400px"
   height="400px"
   version="1.1"
   id="svg25"
   sodipodi:docname="simplex_directed_flag_complex.svg"
   inkscape:version="0.92.3 (2405546, 2018-03-11)">
  <metadata
     id="metadata29">
    <rdf:RDF>
      <cc:Work
         rdf:about="">
        <dc:format>image/svg+xml</dc:format>
        <dc:type
           rdf:resource="http://purl.org/dc/dcmitype/StillImage" />
      </cc:Work>
    </rdf:RDF>
  </metadata>
  <sodipodi:namedview
     pagecolor="#ffffff"
     bordercolor="#666666"
     borderopacity="1"
     objecttolerance="10"
     gridtolerance="10"
     guidetolerance="10"
     inkscape:pageopacity="0"
     inkscape:pageshadow="2"
     inkscape:window-width="2560"
     inkscape:window-height="1395"
     id="namedview27"
     showgrid="false"
     inkscape:zoom="1"
     inkscape:cx="147.0339"
     inkscape:cy="13.559326"
     inkscape:window-x="-13"
     inkscape:window-y="-13"
     inkscape:window-maximized="1"
     inkscape:current-layer="layer1" />
  <defs
     id="defs3">
    <marker
       inkscape:stockid="Arrow2Lend0"
       orient="auto"
       refY="0.0"
       refX="0.0"
       id="Arrow2Lend0"
       style="overflow:visible;">
      <path
         id="pathArrow0"
         style="font-size:12.0;fill-rule:evenodd;stroke-width:0.62500000;stroke-linejoin:round;fill:black"
         d="M 8.7185878,4.0337352 L -2.2072895,0.016013256 L 8.7185884,-4.0017078 C 6.9730900,-1.6296469 6.9831476,1.6157441 8.7185878,4.0337352 z "
         transform="scale(1.1) rotate(180) translate(1,0)" />
    </marker>
  </defs>
  <g
     inkscape:groupmode="layer"
     id="layer2"
     inkscape:label="Lines"
     sodipodi:insensitive="true">
    <path
       style="fill:none;stroke:#000000;stroke-width:2;stroke-linecap:butt;stroke-linejoin:miter;stroke-miterlimit:4;stroke-dasharray:none;stroke-opacity:1;marker-end:url(#Arrow2Lend0)"
       d="M 0,0 V 0"
       id="path0"
       inkscape:connector-type="polyline"
       inkscape:connector-curvature="0"
       inkscape:connection-start="#g1"
       inkscape:connection-start-point="d4"
       inkscape:connection-end="#g2"
       inkscape:connection-end-point="d4" />
    <path
       style="fill:none;stroke:#000000;stroke-width:2;stroke-linecap:butt;stroke-linejoin:miter;stroke-miterlimit:4;stroke-dasharray:none;stroke-opacity:1;marker-end:url(#Arrow2Lend0)"
       d="M 0,0 V 0"
       id="path1"
       inkscape:connector-type="polyline"
       inkscape:connector-curvature="0"
       inkscape:connection-start="#g0"
       inkscape:connection-start-point="d4"
       inkscape:connection-end="#g1"
       inkscape:connection-end-point="d4" />
    <path
       style="fill:none;stroke:#000000;stroke-width:2;stroke-linecap:butt;stroke-linejoin:miter;stroke-miterlimit:4;stroke-dasharray:none;stroke-opacity:1;marker-end:url(#Arrow2Lend0)"
       d="M 0,0 V 0"
       id="path2"
       inkscape:connector-type="polyline"
       inkscape:connector-curvature="0"
       inkscape:connection-start="#g0"
       inkscape:connection-start-point="d4"
       inkscape:connection-end="#g2"
       inkscape:connection-end-point="d4" />
  </g>
  <g
     inkscape:label="Nodes"
     inkscape:groupmode="layer"
     id="layer1">
    <!-- Vertices -->
    <g
       id="g0"
       transform="translate(388.79246067893564,390.0)">
      <circle
         cx="0"
         cy="0"
         r="10"
         fill="red"
         id="circle9" />
      <text
         y="5.0"
         x="0"
         id="text0"
         style="font-size:16px;font-style:normal;font-weight:normal;text-align:center;line-height:125%;letter-spacing:0px;word-spacing:0px;text-anchor:middle;fill:#000000;fill-opacity:1;stroke:none;font-family:Sans">
        <tspan
           y="5.0"
           x="0"
           id="tspan0"
           sodipodi:role="line">1</tspan>
      </text>
    </g>
    <g
       id="g1"
       transform="translate(390,10)">
      <circle
         cx="0"
         cy="0"
         r="10"
         id="circle14"
         style="fill:#ff0000" />
      <text
         y="5"
         x="0"
         id="text1"
         style="font-style:normal;font-weight:normal;font-size:16px;line-height:125%;font-family:Sans;text-align:center;letter-spacing:0px;word-spacing:0px;text-anchor:middle;fill:#000000;fill-opacity:1;stroke:none">
        <tspan
           y="5"
           x="0"
           id="tspan1"
           sodipodi:role="line">2</tspan>
      </text>
    </g>
    <g
       id="g2"
       transform="translate(10,199.09383)">
      <circle
         cx="0"
         cy="0"
         r="10"
         id="circle19"
         style="fill:#ff0000" />
      <text
         y="5"
         x="0"
         id="text2"
         style="font-style:normal;font-weight:normal;font-size:16px;line-height:125%;font-family:Sans;text-align:center;letter-spacing:0px;word-spacing:0px;text-anchor:middle;fill:#000000;fill-opacity:1;stroke:none">
        <tspan
           y="5"
           x="0"
           id="tspan2"
           sodipodi:role="line">3</tspan>
      </text>
    </g>
    <path
       style="opacity:1;fill:#dbae00;fill-opacity:0.55806454;stroke:none;stroke-width:0;stroke-linecap:butt;stroke-miterlimit:4;stroke-dasharray:none;stroke-dashoffset:0;stroke-opacity:1;paint-order:stroke fill markers"
       d="m 207.49995,298.21303 -172.118686,-85.86632 0.970641,-1.27929 c 0.533853,-0.70361 1.850159,-1.9397 2.925123,-2.74686 1.074965,-0.80717 1.876601,-1.54546 1.781415,-1.64065 -0.09519,-0.0952 -4.969651,-0.71118 -10.832143,-1.36886 -5.862492,-0.65769 -10.738647,-1.27538 -10.835899,-1.37263 -0.09725,-0.0973 0.01919,-0.69237 0.258761,-1.32249 0.239571,-0.63012 0.435584,-2.08665 0.435584,-3.23674 0,-1.70578 0.136624,-2.09261 0.741525,-2.09949 1.571025,-0.0179 21.782513,-2.45911 21.978014,-2.65461 0.113516,-0.11351 -0.452584,-0.61366 -1.257999,-1.11143 -0.805415,-0.49777 -2.171653,-1.6879 -3.036084,-2.64472 l -1.571692,-1.73968 1.212949,-0.72904 C 40.1263,187.21322 381.00317,15.932203 381.39063,15.932203 c 0.19507,0 0.58585,0.370172 0.8684,0.822604 0.28254,0.452432 1.37714,1.328602 2.43243,1.947043 1.05529,0.618442 1.91871,1.204726 1.91871,1.302854 0,0.09813 -1.71983,4.875006 -3.82185,10.615286 -2.10202,5.740278 -3.76355,10.495178 -3.69228,10.566443 0.0713,0.07127 1.07605,-0.332128 2.23287,-0.896429 1.15681,-0.564301 2.91368,-1.202422 3.90414,-1.418047 l 1.80085,-0.392044 v 57.511634 c 0,31.631393 0.12453,108.406673 0.27673,170.611733 l 0.27674,113.10011 -2.16476,0.75229 c -1.19061,0.41376 -2.86724,1.41482 -3.72583,2.22457 -0.8586,0.80976 -1.67742,1.45583 -1.81961,1.4357 -0.14219,-0.0201 -77.71194,-38.67644 -172.37722,-85.90292 z"
       id="path846"
       inkscape:connector-curvature="0" />
  </g>
</svg>
