<?xml version="1.0" encoding="UTF-8" standalone="no"?>
<!-- Created by igraph (http://igraph.org/) for use in Inkscape (http://www.inkscape.org/) -->

<svg
   xmlns:dc="http://purl.org/dc/elements/1.1/"
   xmlns:cc="http://creativecommons.org/ns#"
   xmlns:rdf="http://www.w3.org/1999/02/22-rdf-syntax-ns#"
   xmlns:svg="http://www.w3.org/2000/svg"
   xmlns="http://www.w3.org/2000/svg"
   xmlns:sodipodi="http://sodipodi.sourceforge.net/DTD/sodipodi-0.dtd"
   xmlns:inkscape="http://www.inkscape.org/namespaces/inkscape"
   width="400px"
   height="400px"
   version="1.1"
   id="svg25"
   sodipodi:docname="simplex_directed_flag_complex.svg"
   inkscape:version="0.92.3 (2405546, 2018-03-11)">
  <metadata
     id="metadata29">
    <rdf:RDF>
      <cc:Work
         rdf:about="">
        <dc:format>image/svg+xml</dc:format>
        <dc:type
           rdf:resource="http://purl.org/dc/dcmitype/StillImage" />
      </cc:Work>
    </rdf:RDF>
  </metadata>
  <sodipodi:namedview
     pagecolor="#ffffff"
     bordercolor="#666666"
     borderopacity="1"
     objecttolerance="10"
     gridtolerance="10"
     guidetolerance="10"
     inkscape:pageopacity="0"
     inkscape:pageshadow="2"
     inkscape:window-width="2560"
     inkscape:window-height="1395"
     id="namedview27"
     showgrid="false"
     inkscape:zoom="1"
     inkscape:cx="178.0339"
     inkscape:cy="101.08384"
     inkscape:window-x="-13"
     inkscape:window-y="-13"
     inkscape:window-maximized="1"
     inkscape:current-layer="layer1" />
  <defs
     id="defs3">
    <marker
       inkscape:stockid="Arrow2Lend0"
       orient="auto"
       refY="0.0"
       refX="0.0"
       id="Arrow2Lend0"
       style="overflow:visible;">
      <path
         id="pathArrow0"
         style="font-size:12.0;fill-rule:evenodd;stroke-width:0.62500000;stroke-linejoin:round;fill:black"
         d="M 8.7185878,4.0337352 L -2.2072895,0.016013256 L 8.7185884,-4.0017078 C 6.9730900,-1.6296469 6.9831476,1.6157441 8.7185878,4.0337352 z "
         transform="scale(1.1) rotate(180) translate(1,0)" />
    </marker>
  </defs>
  <g
     inkscape:groupmode="layer"
     id="layer2"
     inkscape:label="Lines"
     sodipodi:insensitive="true">
    <path
       style="fill:none;stroke:#000000;stroke-width:2;stroke-linecap:butt;stroke-linejoin:miter;stroke-miterlimit:4;stroke-dasharray:none;stroke-opacity:1;marker-end:url(#Arrow2Lend0)"
       d="M 381.06606,14.492687 19.592791,196.26982"
       id="path0"
       inkscape:connector-type="polyline"
       inkscape:connector-curvature="0"
       inkscape:connection-start="#g1"
       inkscape:connection-start-point="d4"
       inkscape:connection-end="#g2"
       inkscape:connection-end-point="d4" />
    <path
       style="fill:none;stroke:#000000;stroke-width:2;stroke-linecap:butt;stroke-linejoin:miter;stroke-miterlimit:4;stroke-dasharray:none;stroke-opacity:1;marker-end:url(#Arrow2Lend0)"
       d="m 388.82407,380.00019 1.138,-360.000423"
       id="path1"
       inkscape:connector-type="polyline"
       inkscape:connector-curvature="0"
       inkscape:connection-start="#g0"
       inkscape:connection-start-point="d4"
       inkscape:connection-end="#g1"
       inkscape:connection-end-point="d4" />
    <path
       style="fill:none;stroke:#000000;stroke-width:2;stroke-linecap:butt;stroke-linejoin:miter;stroke-miterlimit:4;stroke-dasharray:none;stroke-opacity:1;marker-end:url(#Arrow2Lend0)"
       d="M 379.8437,385.5372 18.005487,205.08622"
       id="path2"
       inkscape:connector-type="polyline"
       inkscape:connector-curvature="0"
       inkscape:connection-start="#g0"
       inkscape:connection-start-point="d4"
       inkscape:connection-end="#g2"
       inkscape:connection-end-point="d4" />
  </g>
  <g
     inkscape:label="Nodes"
     inkscape:groupmode="layer"
     id="layer1">
    <!-- Vertices -->
    <g
       id="g0"
       transform="translate(388.79246,390)">
      <circle
         cx="0"
         cy="0"
         r="10"
         id="circle9"
         style="fill:#ff0000" />
      <text
         y="5"
         x="0"
         id="text0"
         style="font-style:normal;font-weight:normal;font-size:16px;line-height:125%;font-family:Sans;text-align:center;letter-spacing:0px;word-spacing:0px;text-anchor:middle;fill:#000000;fill-opacity:1;stroke:none">
        <tspan
           y="5"
           x="0"
           id="tspan0"
           sodipodi:role="line">1</tspan>
      </text>
    </g>
    <g
       id="g1"
       transform="translate(390,10)">
      <circle
         cx="0"
         cy="0"
         r="10"
         id="circle14"
         style="fill:#ff0000" />
      <text
         y="5"
         x="0"
         id="text1"
         style="font-style:normal;font-weight:normal;font-size:16px;line-height:125%;font-family:Sans;text-align:center;letter-spacing:0px;word-spacing:0px;text-anchor:middle;fill:#000000;fill-opacity:1;stroke:none">
        <tspan
           y="5"
           x="0"
           id="tspan1"
           sodipodi:role="line">2</tspan>
      </text>
    </g>
    <g
       id="g2"
       transform="translate(10,199.09383)">
      <circle
         cx="0"
         cy="0"
         r="10"
         id="circle19"
         style="fill:#ff0000" />
      <text
         y="5"
         x="0"
         id="text2"
         style="font-style:normal;font-weight:normal;font-size:16px;line-height:125%;font-family:Sans;text-align:center;letter-spacing:0px;word-spacing:0px;text-anchor:middle;fill:#000000;fill-opacity:1;stroke:none">
        <tspan
           y="5"
           x="0"
           id="tspan2"
           sodipodi:role="line">3</tspan>
      </text>
    </g>
    <path
       style="opacity:1;fill:#dbae00;fill-opacity:0.55806454;stroke:none;stroke-width:0;stroke-linecap:butt;stroke-miterlimit:4;stroke-dasharray:none;stroke-dashoffset:0;stroke-opacity:1;paint-order:stroke fill markers"
       d="M 207.8214,298.45901 C 112.98078,251.15766 35.3839,212.37293 35.3839,212.27072 c 0,-0.74431 4.288769,-4.82224 5.538933,-5.26664 0.184837,-0.0657 0.278688,-0.18287 0.208557,-0.26037 -0.07013,-0.0775 -4.963881,-0.6638 -10.875,-1.3029 -5.911119,-0.6391 -10.879853,-1.20314 -11.04163,-1.25343 -0.208212,-0.0647 -0.142684,-0.47921 0.22431,-1.41883 0.36276,-0.92878 0.526164,-1.94626 0.54414,-3.38826 0.01413,-1.13348 0.03729,-2.06161 0.05146,-2.0625 0.12332,-0.008 22.094401,-2.51682 22.474234,-2.5665 0.38248,-0.05 0.176819,-0.27665 -0.875,-0.96419 -1.40249,-0.91676 -3.931437,-3.40787 -4.456962,-4.39027 -0.282193,-0.52753 0.86861,-1.12719 37.27039,-19.42084 C 95.106193,159.5939 172.63777,120.61078 246.73972,83.346828 l 134.73081,-67.752644 0.9528,1.08243 c 1.23397,1.401859 2.9679,2.493221 4.79585,3.018583 1.1326,0.32551 1.4347,0.512401 1.34625,0.832827 -0.0627,0.227225 -1.81673,4.99249 -3.89778,10.589477 -2.08107,5.596988 -3.78375,10.235485 -3.78375,10.30777 0,0.07229 0.70415,-0.255623 1.5648,-0.728685 1.90635,-1.047869 3.3453,-1.57019 5.07153,-1.840885 l 1.30852,-0.2052 -0.0998,13.02033 c -0.0549,7.161182 -0.26822,75.514079 -0.47407,151.895329 -0.20588,76.38125 -0.4434,147.34063 -0.52785,157.6875 -0.1426,17.46858 -0.18388,18.8125 -0.57798,18.8125 -1.74285,0 -4.72575,1.69665 -6.1878,3.51958 l -0.70235,0.87572 z"
       id="path837"
       inkscape:connector-curvature="0" />
  </g>
</svg>
